<svg width="12" height="16" viewBox="0 0 12 16" fill="none" xmlns="http://www.w3.org/2000/svg">
<path d="M5.59762 4.86298e-10C4.11753 0.00127802 2.69807 0.608013 1.64926 1.68769C0.600452 2.76736 0.00753176 4.23223 0 5.76236C0 8.05649 1.24497 9.97728 2.15732 11.3773L2.32363 11.6328C3.23136 12.9929 4.20514 14.3046 5.24124 15.5628L5.60238 16L5.96351 15.5628C6.99948 14.3044 7.97325 12.9928 8.88112 11.6328L9.04743 11.3724C9.95503 9.97237 11.2 8.05649 11.2 5.76236C11.1925 4.23138 10.5989 2.76577 9.54905 1.68595C8.49922 0.606142 7.07854 -1.98249e-05 5.59762 4.86298e-10V4.86298e-10ZM5.59762 8.35124C4.9811 8.35124 4.37843 8.16224 3.86581 7.80814C3.35319 7.45404 2.95365 6.95073 2.71772 6.36188C2.48179 5.77303 2.42006 5.12507 2.54034 4.49995C2.66061 3.87483 2.9575 3.30061 3.39344 2.84993C3.82939 2.39924 4.38482 2.09231 4.98949 1.96797C5.59417 1.84363 6.22093 1.90744 6.79052 2.15135C7.36011 2.39527 7.84695 2.80831 8.18947 3.33827C8.53199 3.86822 8.71481 4.49128 8.71481 5.12865C8.71481 5.98333 8.38639 6.80301 7.8018 7.40737C7.21722 8.01172 6.42435 8.35124 5.59762 8.35124V8.35124Z" fill="#F4F8FE"/>
</svg>
