<svg width="24" height="21" viewBox="0 0 24 21" fill="none" xmlns="http://www.w3.org/2000/svg">
<path d="M6.68182 0C4.7983 0 3.08523 0.651988 1.875 1.84091C0.664773 3.02983 0 4.73011 0 6.68182C0 9.98437 2.02415 12.4474 4.32955 14.5227C6.63494 16.598 9.32387 18.4347 11.1477 20.5909C11.348 20.8423 11.6463 20.9915 11.9659 21H12.0341C12.3537 20.9915 12.652 20.8423 12.8523 20.5909C14.6761 18.4347 17.3651 16.598 19.6705 14.5227C21.9759 12.4474 24 9.98437 24 6.68182C24 4.73011 23.3011 3.02983 22.0909 1.84091C20.8807 0.651988 19.2017 0 17.3182 0C15.4517 0 13.9219 1.01847 12.8523 1.94318C12.3281 2.39489 12.3026 2.51846 12 2.86364C11.7017 2.51846 11.6719 2.39489 11.1477 1.94318C10.0824 1.01847 8.5483 0 6.68182 0ZM6.68182 2.18182C7.70881 2.18182 8.85511 2.8679 9.71591 3.61363C10.5767 4.35937 11.1136 5.07954 11.1136 5.07954C11.3182 5.36505 11.6506 5.53551 12 5.53551C12.3494 5.53551 12.6818 5.36506 12.8864 5.07954C12.8864 5.07954 13.419 4.35937 14.2841 3.61363C15.1491 2.86789 16.2869 2.18182 17.3182 2.18182C18.7202 2.18182 19.8239 2.65909 20.5909 3.40909C21.358 4.15909 21.8182 5.22017 21.8182 6.68182C21.8182 9.09801 20.3565 10.9474 18.2045 12.8864C16.2997 14.6037 13.973 16.3636 12 18.4432C10.0227 16.3551 7.70455 14.6037 5.79545 12.8864C3.64347 10.9474 2.18182 9.09801 2.18182 6.68182C2.18182 5.22017 2.64205 4.15909 3.40909 3.40909C4.17614 2.65909 5.27557 2.18182 6.68182 2.18182Z" fill="#7D82E7"/>
<path d="M22 5.50036C22 11.5 17 14.0001 12.6344 20.6339C8.3782 17.2289 -1.83656 10.4191 2.41957 2.75792C2.41957 -1.00306 8.37821 1.9062 12.6344 3.60905C16.0393 2.75767 18 -2.5 22 5.50036Z" fill="#7D82E7"/>
</svg>
