<svg width="16" height="16" viewBox="0 0 16 16" fill="none" xmlns="http://www.w3.org/2000/svg">
<circle cx="8" cy="8" r="8" fill="#7D82E7"/>
<path d="M7.99873 4C7.20582 4.00072 6.44539 4.34201 5.88353 4.94932C5.32167 5.55664 5.00403 6.38063 5 7.24133C5 8.53178 5.66695 9.61222 6.15571 10.3998L6.2448 10.5434C6.73108 11.3085 7.25275 12.0463 7.80781 12.7541L8.00127 13L8.19474 12.7541C8.74972 12.0463 9.27139 11.3084 9.75774 10.5434L9.84684 10.397C10.3331 9.60946 11 8.53178 11 7.24133C10.996 6.38015 10.678 5.55574 10.1156 4.94835C9.55315 4.34095 8.79207 3.99999 7.99873 4ZM7.99873 8.69757C7.66845 8.69757 7.34559 8.59126 7.07097 8.39208C6.79635 8.19289 6.58231 7.90979 6.45592 7.57856C6.32953 7.24733 6.29646 6.88285 6.36089 6.53122C6.42533 6.17959 6.58437 5.8566 6.81792 5.60308C7.05146 5.34957 7.34901 5.17693 7.67294 5.10698C7.99687 5.03704 8.33264 5.07294 8.63778 5.21014C8.94292 5.34734 9.20372 5.57968 9.38721 5.87778C9.57071 6.17587 9.66865 6.52634 9.66865 6.88486C9.66865 7.36562 9.49271 7.82669 9.17954 8.16664C8.86637 8.50659 8.44162 8.69757 7.99873 8.69757Z" fill="white"/>
</svg>
