<svg width="10" height="9" viewBox="0 0 10 9" fill="none" xmlns="http://www.w3.org/2000/svg">
<path d="M5.13333 0C4.72832 0 4.4 0.328324 4.4 0.733334C4.40012 1.00401 4.54934 1.25261 4.78815 1.38001L3.33796 4.09922L1.36497 2.93835C1.4314 2.82573 1.46651 2.69741 1.46667 2.56667C1.46667 2.16166 1.13834 1.83333 0.733333 1.83333C0.328324 1.83333 0 2.16166 0 2.56667C0 2.97168 0.328324 3.3 0.733333 3.3C0.757739 3.29978 0.782118 3.29835 0.806381 3.2957L1.1 6.23333H2.2H6.96667H8.06667H9.16667L9.46029 3.29642C9.48456 3.29883 9.50894 3.30002 9.53333 3.3C9.93834 3.3 10.2667 2.97168 10.2667 2.56667C10.2667 2.16166 9.93834 1.83333 9.53333 1.83333C9.12832 1.83333 8.8 2.16166 8.8 2.56667C8.80016 2.69741 8.83527 2.82573 8.90169 2.93835L6.92871 4.09922L5.47852 1.38001C5.71733 1.25261 5.86654 1.00401 5.86667 0.733334C5.86667 0.328324 5.53834 0 5.13333 0H5.13333ZM1.1 6.96667V7.7C1.1 8.10517 1.42817 8.43333 1.83333 8.43333H8.43333C8.8385 8.43333 9.16667 8.10517 9.16667 7.7V6.96667H1.1Z" fill="#E6C34A"/>
</svg>
