<svg width="16" height="16" viewBox="0 0 16 16" fill="none" xmlns="http://www.w3.org/2000/svg">
<path d="M15.723 9.75334L14.6944 8.97007C14.3955 8.74246 14.2484 8.37505 14.2484 7.99934C14.2484 7.62385 14.3957 7.25612 14.6945 7.02868L15.7244 6.24469C16.0051 6.02869 16.0818 5.64534 15.9031 5.32603L14.3326 2.68C14.1648 2.38134 13.7972 2.228 13.4241 2.362L12.2061 2.83815C11.8538 2.97586 11.4554 2.91864 11.1265 2.73197C10.788 2.53994 10.5376 2.22014 10.4809 1.83519L10.3009 0.613344C10.2564 0.264 9.94421 0 9.57522 0H6.42602C6.05701 0 5.74553 0.264 5.70169 0.608L5.5211 1.83554C5.46437 2.22116 5.22363 2.53704 4.88485 2.72978C4.55739 2.91608 4.15146 2.97771 3.80058 2.84052L2.57508 2.36134C2.24028 2.23534 1.83978 2.37666 1.67342 2.674L0.100886 5.32334C-0.084633 5.62869 -0.00796721 6.02534 0.278896 6.24669L1.30805 7.03036C1.6067 7.25777 1.75355 7.62466 1.75355 8.00003C1.75355 8.37583 1.60649 8.74306 1.30747 8.97068L0.277516 9.75469C-0.00318562 9.97134 -0.0791775 10.3547 0.0995061 10.6733L1.67002 13.3193C1.83776 13.6173 2.20196 13.772 2.57848 13.6373L3.79638 13.1612C4.14874 13.0235 4.54689 13.0803 4.87591 13.2671C5.21398 13.459 5.46432 13.7788 5.52098 14.1634L5.70102 15.3853C5.7455 15.736 6.05701 16 6.4267 16H9.5759C9.94491 16 10.2571 15.736 10.3009 15.392L10.4815 14.1646C10.5383 13.7792 10.7783 13.4636 11.1169 13.2709C11.4448 13.0843 11.8515 13.0224 12.2028 13.1598L13.4275 13.6387C13.5138 13.6713 13.6035 13.688 13.6959 13.688C13.9615 13.688 14.2059 13.5467 14.3291 13.3267L15.9065 10.6667C16.0818 10.3547 16.0051 9.97134 15.723 9.75334ZM8.00061 10.6667C6.49037 10.6667 5.26217 9.47066 5.26217 8C5.26217 6.52934 6.49037 5.33334 8.00061 5.33334C9.51085 5.33334 10.739 6.52934 10.739 8C10.739 9.47066 9.51085 10.6667 8.00061 10.6667Z" fill="#7D82E7"/>
</svg>
