<svg width="16" height="16" viewBox="0 0 16 16" fill="none" xmlns="http://www.w3.org/2000/svg">
<circle cx="8" cy="8" r="8" fill="#7D82E7"/>
<path d="M7.9999 3.42871C5.47911 3.42871 3.42847 5.47935 3.42847 8.00014C3.42847 10.5209 5.47911 12.5716 7.9999 12.5716C10.5207 12.5716 12.5713 10.5209 12.5713 8.00014C12.5713 5.47935 10.5207 3.42871 7.9999 3.42871ZM10.174 10.3647C10.0997 10.439 10.0022 10.4764 9.90468 10.4764C9.80716 10.4764 9.70958 10.439 9.63536 10.3647L7.73057 8.45996C7.65894 8.38874 7.61897 8.29192 7.61897 8.19064V5.71443C7.61897 5.50377 7.78959 5.3335 7.9999 5.3335C8.21021 5.3335 8.38082 5.50377 8.38082 5.71443V8.03292L10.174 9.82603C10.3229 9.97503 10.3229 10.2158 10.174 10.3647Z" fill="#F4F8FE"/>
</svg>
