<svg width="13" height="13" viewBox="0 0 13 13" fill="none" xmlns="http://www.w3.org/2000/svg">
<path d="M3.80467 12.1378L10 5.94242L7.05733 2.99976L0.862 9.19509C0.776709 9.28049 0.716123 9.38738 0.686667 9.50442L0 12.9998L3.49467 12.3131C3.612 12.2838 3.71933 12.2231 3.80467 12.1378ZM12 3.94242C12.25 3.69239 12.3904 3.35331 12.3904 2.99976C12.3904 2.6462 12.25 2.30713 12 2.05709L10.9427 0.999757C10.6926 0.749796 10.3536 0.609375 10 0.609375C9.64645 0.609375 9.30737 0.749796 9.05733 0.999757L8 2.05709L10.9427 4.99976L12 3.94242Z" fill="#7D82E7"/>
</svg>
